# xmcd CD database file
#
# Track frame offsets:
#	187
#	15527
#	35045
#	48832
#	61525
#	78590
#	94237
#	112345
#	128937
#	146457
#
# Disc length: 2249 seconds
#
# Revision: 0
# Processed by: cddbd v1.5.1PL0 Copyright (c) Steve Scherf et al.
# Submitted via: CDex 1.51
#
DISCID=8408c70a
DTITLE=松本伊代 - CD FILE IYO MATSUMOTO VOL. 2
DYEAR=1987
DGENRE=JPop
TTITLE0=チャイニーズ・キッス (Chinese Kiss)
TTITLE1=エリオット (Elliott)
TTITLE2=太陽がいっぱい
TTITLE3=涙のハンカチーフ
TTITLE4=恋のバイオリズム
TTITLE5=うそがおじょうず
TTITLE6=時に愛は
TTITLE7=真珠のイヤリング
TTITLE8=恋のKNOW-HOW
TTITLE9=NOT FOR SALE
EXTD=YEAR: 1987
EXTT0=
EXTT1=
EXTT2=
EXTT3=
EXTT4=
EXTT5=
EXTT6=
EXTT7=
EXTT8=
EXTT9=
PLAYORDER=
